# xmcd
#
# Track frame offsets:
#	150
#	13542
#	25544
#	46539
#	67802
#	88569
#	106469
#	125055
#	140863
#	153572
#	171527
#	193029
#
# Disc length: 2870 seconds
#
# Revision: 1
# Processed by: cddbd v1.5.2PL0 Copyright (c) Steve Scherf et al.
# Submitted via: Jack! The Knife
#
DISCID=9d0b340c
DTITLE=The Police - Every Breath You Take
DYEAR=1988
DGENRE=Pop
TTITLE0=Roxanne
TTITLE1=Can't Stand Losing You
TTITLE2=Message In A Bottle
TTITLE3=Walking On The Moon
TTITLE4=Don't Stand So Close To Me
TTITLE5=De Do Do Do De Da Da Da
TTITLE6=Every Little Thing She Does Is Magic
TTITLE7=Invisible Sun
TTITLE8=Spirits In The Material World
TTITLE9=Every Breathe You Take
TTITLE10=King Of Pain
TTITLE11=Wrapped Around Your Finger
EXTD=
EXTT0=
EXTT1=
EXTT2=
EXTT3=
EXTT4=
EXTT5=
EXTT6=
EXTT7=
EXTT8=
EXTT9=
EXTT10=
EXTT11=
PLAYORDER=
